<?xml version="1.0" encoding="UTF-8" standalone="no"?>
<svg
   height="17.5"
   width="24.367088"
   version="1.1"
   id="svg381"
   sodipodi:docname="cloud_load_icon.svg"
   inkscape:version="1.2.2 (1:1.2.2+202212051552+b0a8486541)"
   xmlns:inkscape="http://www.inkscape.org/namespaces/inkscape"
   xmlns:sodipodi="http://sodipodi.sourceforge.net/DTD/sodipodi-0.dtd"
   xmlns="http://www.w3.org/2000/svg"
   xmlns:svg="http://www.w3.org/2000/svg">
  <defs
     id="defs385" />
  <sodipodi:namedview
     id="namedview383"
     pagecolor="#ffffff"
     bordercolor="#000000"
     borderopacity="0.25"
     inkscape:showpageshadow="2"
     inkscape:pageopacity="0.0"
     inkscape:pagecheckerboard="0"
     inkscape:deskcolor="#d1d1d1"
     showgrid="false"
     inkscape:zoom="17.229167"
     inkscape:cx="22.055623"
     inkscape:cy="15.613059"
     inkscape:window-width="1920"
     inkscape:window-height="1007"
     inkscape:window-x="0"
     inkscape:window-y="0"
     inkscape:window-maximized="1"
     inkscape:current-layer="svg381" />
  <path
     d="M 5.8425633,17.5 Q 3.4058544,17.5 1.7029272,15.797073 0,14.094146 0,11.657437 0,9.4699367 1.3983386,7.8500791 2.7966772,6.2302215 4.9011076,5.897943 5.3164557,3.5719937 7.1716772,1.7859968 9.0268987,0 11.380538,0 12.045095,0 12.543513,0.37381329 13.04193,0.74762658 13.04193,1.3844937 V 9.5253165 L 15.34019,7.227057 16.530854,8.4177215 12.211234,12.737342 7.8916139,8.4177215 9.0822785,7.227057 11.380538,9.5253165 V 1.522943 Q 8.9992089,1.8275316 7.6424051,3.6135285 6.2856013,5.3995253 6.2856013,7.4762658 H 5.7594937 q -1.6890823,0 -2.8935918,1.1906646 -1.2045095,1.1906645 -1.2045095,2.9905066 0,1.799841 1.2460443,2.990506 1.2460443,1.190665 2.9351266,1.190665 H 19.6875 q 1.246044,0 2.13212,-0.886076 0.886076,-0.886076 0.886076,-2.132121 0,-1.246044 -0.886076,-2.13212 Q 20.933544,9.8022152 19.6875,9.8022152 H 17.943038 V 7.4762658 q 0,-1.8829114 -0.913766,-3.2535601 Q 16.115506,2.852057 14.675633,2.0490506 V 0.24920886 q 2.24288,0.80300634 3.585839,2.79667724 1.342958,1.9936709 1.342958,4.4303797 v 0.664557 q 1.993671,-0.05538 3.378165,1.2737342 1.384494,1.329114 1.384494,3.405854 0,1.910602 -1.384494,3.295095 Q 21.598101,17.5 19.6875,17.5 Z M 12.183544,7.8916139 Z"
     id="path379"
     style="stroke-width:0.553797" />
</svg>
