<?xml version="1.0" encoding="UTF-8" standalone="no"?>
<svg
   height="17.5"
   width="24.100157"
   version="1.1"
   id="svg4"
   xmlns="http://www.w3.org/2000/svg"
   xmlns:svg="http://www.w3.org/2000/svg">
  <defs
     id="defs8" />
  <path
     d="M 10.187793,14.241002 16.486698,7.942097 15.391236,6.8466354 10.21518,12.022692 7.4765258,9.2840376 6.3536776,10.406886 Z M 5.7785603,17.5 Q 3.3685446,17.5 1.6842723,15.815728 0,14.131455 0,11.72144 0,9.5852895 1.3693271,7.9694836 2.7386541,6.3536776 4.8474178,6.0250391 5.3951487,3.3685446 7.4217527,1.6842723 9.4483568,0 12.104851,0 q 3.067293,0 5.176057,2.2320031 2.108763,2.2320032 2.108763,5.3540689 v 0.657277 q 1.971831,-0.054773 3.341158,1.2734742 1.369327,1.3282468 1.369327,3.3548508 0,1.889672 -1.369327,3.258999 Q 21.361502,17.5 19.471831,17.5 Z m 0,-1.643192 H 19.471831 q 1.232394,0 2.108764,-0.87637 0.876369,-0.876369 0.876369,-2.108764 0,-1.232394 -0.876369,-2.108763 -0.87637,-0.8763695 -2.108764,-0.8763695 H 17.746479 V 7.586072 q 0,-2.4921753 -1.670579,-4.2175274 -1.670579,-1.7253521 -4.080595,-1.7253521 -2.4100155,0 -4.0942878,1.7253521 Q 6.2167449,5.0938967 6.2167449,7.586072 H 5.6964006 q -1.6979655,0 -2.8755868,1.1913145 -1.1776213,1.1913146 -1.1776213,2.9440535 0,1.725352 1.2050078,2.93036 1.2050078,1.205008 2.93036,1.205008 z M 12.050078,8.7363067 Z"
     id="path2"
     style="stroke-width:0.547731" />
</svg>
