<?xml version="1.0" encoding="UTF-8" standalone="no"?>
<svg
   height="17.5"
   width="17.111397"
   version="1.1"
   id="svg208"
   xmlns="http://www.w3.org/2000/svg"
   xmlns:svg="http://www.w3.org/2000/svg">
  <defs
     id="defs212" />
  <path
     d="m 9.996875,17.5 h -2.8875 Q 6.86875,17.5 6.6828125,17.346875 6.496875,17.19375 6.453125,16.953125 l -0.35,-2.209375 Q 5.6875,14.590625 5.228125,14.328125 4.76875,14.065625 4.41875,13.78125 L 2.384375,14.721875 Q 2.14375,14.83125 1.903125,14.754688 1.6625,14.678125 1.53125,14.4375 L 0.0875,11.878125 Q -0.04375,11.659375 0.021875,11.41875 0.0875,11.178125 0.284375,11.025 L 2.165625,9.646875 Q 2.121875,9.45 2.1109375,9.1984375 2.1,8.946875 2.1,8.75 2.1,8.553125 2.1109375,8.3015625 2.121875,8.05 2.165625,7.853125 L 0.284375,6.475 Q 0.0875,6.321875 0.021875,6.08125 -0.04375,5.840625 0.0875,5.621875 L 1.53125,3.0625 Q 1.6625,2.821875 1.903125,2.7453125 2.14375,2.66875 2.384375,2.778125 L 4.41875,3.71875 q 0.35,-0.284375 0.809375,-0.546875 0.459375,-0.2625 0.875,-0.39375 l 0.35,-2.23125 Q 6.496875,0.30625 6.6828125,0.153125 6.86875,0 7.109375,0 h 2.8875 q 0.240625,0 0.426563,0.153125 0.185937,0.153125 0.229687,0.39375 l 0.35,2.209375 Q 11.41875,2.909375 11.889063,3.1609375 12.359375,3.4125 12.6875,3.71875 L 14.721875,2.778125 Q 14.9625,2.66875 15.203125,2.7453125 15.44375,2.821875 15.575,3.0625 L 17.01875,5.6 Q 17.15,5.81875 17.095312,6.0703125 17.040625,6.321875 16.821875,6.475 l -1.88125,1.334375 q 0.04375,0.21875 0.05469,0.4703125 Q 15.00625,8.53125 15.00625,8.75 q 0,0.21875 -0.01094,0.459375 Q 14.984375,9.45 14.940625,9.66875 l 1.88125,1.35625 q 0.196875,0.153125 0.2625,0.39375 0.06562,0.240625 -0.06563,0.459375 L 15.575,14.4375 q -0.13125,0.240625 -0.371875,0.317188 -0.240625,0.07656 -0.48125,-0.03281 L 12.6875,13.78125 q -0.35,0.284375 -0.798437,0.557812 -0.448438,0.273438 -0.885938,0.404688 l -0.35,2.209375 q -0.04375,0.240625 -0.229687,0.39375 Q 10.2375,17.5 9.996875,17.5 Z m -1.44375,-5.90625 q 1.18125,0 2.0125,-0.83125 0.83125,-0.83125 0.83125,-2.0125 0,-1.18125 -0.83125,-2.0125 -0.83125,-0.83125 -2.0125,-0.83125 -1.18125,0 -2.0125,0.83125 -0.83125,0.83125 -0.83125,2.0125 0,1.18125 0.83125,2.0125 0.83125,0.83125 2.0125,0.83125 z"
     id="path206"
     style="stroke-width:0.4375;fill:#4d4d4d" />
</svg>
