<?xml version="1.0" encoding="UTF-8" standalone="no"?>
<svg
   height="17.5"
   width="15.771875"
   version="1.1"
   id="svg4"
   xmlns="http://www.w3.org/2000/svg"
   xmlns:svg="http://www.w3.org/2000/svg">
  <defs
     id="defs8" />
  <path
     d="m 13.278125,17.5 q -1.028125,0 -1.760937,-0.732812 -0.732813,-0.732813 -0.732813,-1.760938 0,-0.153125 0.03281,-0.360938 Q 10.85,14.4375 10.915625,14.2625 L 4.2875,10.4125 q -0.328125,0.371875 -0.809375,0.601563 -0.48125,0.229687 -0.984375,0.229687 -1.028125,0 -1.7609375,-0.732813 Q 0,9.778125 0,8.75 0,7.7 0.7328125,6.978125 1.465625,6.25625 2.49375,6.25625 q 0.503125,0 0.9625,0.196875 Q 3.915625,6.65 4.2875,7.021875 l 6.628125,-3.80625 Q 10.85,3.0625 10.817188,2.865625 10.784375,2.66875 10.784375,2.49375 q 0,-1.05 0.732813,-1.771875 Q 12.25,0 13.278125,0 q 1.05,0 1.771875,0.721875 0.721875,0.721875 0.721875,1.771875 0,1.028125 -0.721875,1.7609375 Q 14.328125,4.9875 13.278125,4.9875 12.775,4.9875 12.304688,4.8234375 11.834375,4.659375 11.50625,4.2875 L 4.878125,7.9625 Q 4.921875,8.1375 4.954688,8.3671875 4.9875,8.596875 4.9875,8.75 q 0,0.153125 -0.032812,0.328125 -0.032813,0.175 -0.076563,0.35 l 6.628125,3.7625 q 0.328125,-0.30625 0.765625,-0.492188 0.4375,-0.185937 1.00625,-0.185937 1.05,0 1.771875,0.721875 0.721875,0.721875 0.721875,1.771875 0,1.028125 -0.721875,1.760937 Q 14.328125,17.5 13.278125,17.5 Z m 0,-13.825 q 0.503125,0 0.842187,-0.3390625 0.339063,-0.3390625 0.339063,-0.8421875 0,-0.503125 -0.339063,-0.8421875 Q 13.78125,1.3125 13.278125,1.3125 12.775,1.3125 12.435938,1.6515625 12.096875,1.990625 12.096875,2.49375 q 0,0.503125 0.339062,0.8421875 Q 12.775,3.675 13.278125,3.675 Z M 2.49375,9.93125 q 0.503125,0 0.8421875,-0.3390625 Q 3.675,9.253125 3.675,8.75 3.675,8.246875 3.3359375,7.9078125 2.996875,7.56875 2.49375,7.56875 1.990625,7.56875 1.6515625,7.9078125 1.3125,8.246875 1.3125,8.75 q 0,0.503125 0.3390625,0.8421875 Q 1.990625,9.93125 2.49375,9.93125 Z m 10.784375,6.25625 q 0.503125,0 0.842187,-0.339062 0.339063,-0.339063 0.339063,-0.842188 0,-0.503125 -0.339063,-0.842187 Q 13.78125,13.825 13.278125,13.825 q -0.503125,0 -0.842187,0.339063 -0.339063,0.339062 -0.339063,0.842187 0,0.503125 0.339063,0.842187 Q 12.775,16.1875 13.278125,16.1875 Z m 0,-13.69375 z M 2.49375,8.75 Z m 10.784375,6.25625 z"
     id="path2"
     style="stroke-width:0.4375" />
</svg>
