<?xml version="1.0" encoding="UTF-8" standalone="no"?>
<svg
   width="422"
   height="119"
   viewBox="0 0 422 119"
   fill="none"
   version="1.1"
   id="svg28"
   xmlns="http://www.w3.org/2000/svg"
   xmlns:svg="http://www.w3.org/2000/svg">
  <path
     d="M142.615 116.15C142.615 113.973 147.501 71.9608 149.164 59.8357L149.748 55.5799H154.493C160.003 55.5799 161.641 56.8186 161.641 60.9835V63.9838L164.896 60.8953C171.632 54.5032 178.487 52.951 184.308 56.5002C188.991 59.356 191.052 65.6434 190.489 75.3601C189.716 88.7128 183.027 99.4292 173.099 103.221C168.494 104.98 165.419 104.754 159.511 102.222C158.131 101.63 157.778 102.564 157.197 108.343C156.122 119.043 156.419 118.667 149.057 118.667C142.844 118.667 142.615 118.577 142.615 116.15V116.15ZM170.454 91.6004C174.078 88.2249 175.937 83.4921 176.449 76.3453C176.967 69.0979 175.399 65.5936 171.637 65.5936C169.203 65.5936 164.672 70.3837 162.49 75.2638C159.92 81.0108 158.864 91.5263 160.738 92.7124C163.208 94.2765 168.194 93.7059 170.454 91.6004ZM324.18 114.912C324.493 112.846 326.219 98.6517 328.015 83.3681L331.279 55.5799H335.501C341.773 55.5799 342.891 56.2933 342.891 60.2969V63.7983L346.573 60.5652C353.563 54.4283 359.984 53.1018 365.733 56.6069C370.708 59.6401 372.226 64.3067 371.754 75.1104C371.4 83.2048 370.98 84.8573 367.807 90.6525C361.713 101.78 351.562 107.121 343.833 103.266C342.08 102.391 340.296 101.891 339.87 102.154C339.444 102.418 338.776 106.241 338.385 110.65L337.676 118.667H330.642H323.609L324.18 114.912ZM352.817 90.722C356.14 87.165 357.912 81.5838 357.912 74.6744C357.912 68.3535 356.588 65.5936 353.558 65.5936C348.519 65.5936 342.661 75.4375 341.409 86.0078C340.618 92.677 341.26 93.5918 346.745 93.6169C349.168 93.6283 350.853 92.8248 352.817 90.722V90.722ZM380.57 111.907C382.621 108.19 384.896 104.259 385.625 103.173C387.634 100.182 387.384 98.6035 381.444 76.6991C378.415 65.529 375.937 56.1879 375.937 55.941C375.937 55.6942 379.204 55.6245 383.197 55.7861L390.457 56.0803L393.091 68.8958C394.541 75.9444 395.995 81.9796 396.322 82.3074C396.65 82.6352 397.236 82.0504 397.623 81.0077C400.325 73.7446 408.191 57.0662 409.224 56.4103C410.73 55.454 422 55.2967 422 56.232C422 57.103 391.964 115.814 390.7 117.415C390.092 118.184 387.229 118.667 383.275 118.667H376.84L380.57 111.907ZM111.313 103.276C109.242 102.504 106.764 101.273 105.805 100.539C104.846 99.8059 103.898 99.1021 103.698 98.9752C103.497 98.8484 104.322 97.1436 105.532 95.187C107.942 91.2871 110.381 90.7329 114.577 93.1316C117.656 94.892 122.773 95.0486 124.39 93.4321C125.959 91.8633 125.93 88.1353 124.34 86.886C123.652 86.3452 120.931 85.0958 118.294 84.1096C109.755 80.9157 106.524 74.1233 109.636 65.9092C113.316 56.1971 126.588 51.7281 136.595 56.8316C139.025 58.0708 141.169 59.5984 141.36 60.2263C141.551 60.8541 140.604 62.6505 139.256 64.2182C136.944 66.9051 136.607 66.9976 133.38 65.8305C128.11 63.925 122.849 64.2347 121.625 66.5226C119.984 69.5892 121.297 71.2108 128.023 74.4239C138.55 79.4521 140.968 85.124 136.511 94.3317C132.646 102.315 120.399 106.662 111.313 103.276L111.313 103.276ZM203.199 103.692C197.742 101.435 194.687 95.2978 194.687 86.595C194.687 66.8245 211.613 52.4588 231.918 54.9957C240.823 56.1084 240.465 54.3972 237.256 80.5299L234.417 103.646H229.773C224.616 103.646 222.726 102.383 222.726 98.9396C222.726 95.9419 221.631 96.0303 218.644 99.2688C214.429 103.84 208.004 105.68 203.199 103.692V103.692ZM218.032 89.6663C221.321 85.7576 223.492 79.6453 224.536 71.3515C225.386 64.6071 225.382 64.5923 222.923 64.5923C213.782 64.5923 205.565 80.6357 209.868 90.0803C211.453 93.5574 214.906 93.3823 218.032 89.6663V89.6663ZM244.033 99.3902C244.335 97.0494 245.632 86.2346 246.914 75.3571L249.246 55.5799H253.428C259.547 55.5799 260.715 56.3365 261.423 60.7601L262.056 64.7204L263.811 62.044C264.777 60.572 266.855 58.5184 268.43 57.4804C271.303 55.5861 276.293 54.9267 277.129 56.3309C277.375 56.7439 277.103 59.673 276.52 62.8398C275.465 68.5912 275.46 68.5978 271.849 68.5978C269.86 68.5978 267.295 69.2546 266.149 70.0575C262.663 72.4991 260.054 80.3646 258.743 92.3805L257.514 103.646H250.498H243.482L244.033 99.3902ZM277.405 98.5682C277.775 95.7754 279.706 80.1163 281.695 63.7703L285.312 34.0502L292.071 33.7542C300.142 33.4007 299.661 31.1626 296.712 55.3378C295.547 64.8901 294.837 72.9492 295.135 73.247C296.248 74.3601 298.786 71.8712 304.727 63.8414L310.839 55.58H318.411H325.984L318.357 65.5297C314.163 71.0021 310.193 75.6603 309.537 75.8813C308.616 76.1913 308.619 76.617 309.548 77.7448C310.519 78.9213 314.214 87.1981 320.552 102.394C320.941 103.327 319.27 103.646 313.997 103.646C309.609 103.646 306.488 103.17 305.783 102.394C305.157 101.706 302.994 97.0871 300.975 92.1303C298.089 85.0419 296.881 83.1179 295.318 83.1179C293.636 83.1179 293.221 84.0413 292.616 89.1262C292.222 92.4307 291.63 97.0496 291.298 99.3903L290.696 103.646H283.713H276.73L277.404 98.5683L277.405 98.5682Z"
     fill="#E84118"
     id="path2" />
  <g
     clip-path="url(#clip0_3_38)"
     id="g6">
    <path
       d="M47.077 118.861C42.777 118.625 41.6098 118.39 40.1344 117.462C37.0268 115.509 36.8156 114.653 36.4837 102.661C36.134 90.0248 36.2747 90.5407 28.9704 75.1057C26.4355 69.749 23.8977 63.8697 23.331 62.0406C21.894 57.4026 21.5743 50.194 22.599 45.5372C24.7228 35.8855 32.078 26.772 40.9436 22.807C43.9671 21.4549 50.7768 19.9938 54.0264 20C57.9468 20.0072 65.5966 21.9889 68.861 23.8423C78.459 29.2914 84.6615 38.5227 85.8003 49.0531C86.6249 56.6784 85.0707 62.2321 77.8451 77.4812C75.3068 82.838 72.8641 88.3966 72.4167 89.8338C71.7933 91.8364 71.5378 94.9437 71.3229 103.136C71.0525 113.444 71.002 113.884 69.911 115.43C68.1141 117.977 65.8606 118.673 58.5898 118.925C55.1007 119.046 49.92 119.017 47.077 118.861V118.861ZM65.6993 112.205C66.4988 111.207 66.5912 110.42 66.4751 105.598L66.3434 100.123L54.0082 100.086L41.673 100.048L41.673 106.048C41.673 112.269 41.8062 112.724 43.7876 113.271C44.3045 113.414 49.2419 113.487 54.7595 113.435C64.7123 113.34 64.7988 113.33 65.6993 112.206L65.6993 112.205ZM65.0557 94.7738C66.3336 94.5154 66.4986 94.269 66.7677 92.2184C67.2645 88.432 69.0423 83.881 74.0094 73.6804C80.3618 60.6348 80.8663 59.0835 80.8854 52.5386C80.906 45.4376 79.6465 41.6573 75.3219 35.8408C67.6614 25.5376 53.6032 22.2657 41.908 28.0642C32.4844 32.7364 26.0019 43.7402 26.79 53.7263C27.2478 59.5261 28.5059 63.1364 33.5383 73.0905C38.2275 82.3657 41.2031 89.8481 41.2031 92.3642C41.2031 94.9362 41.7517 95.0598 53.1607 95.0598C58.9251 95.0598 64.2778 94.9311 65.0557 94.7738V94.7738ZM36.6772 49.4066C37.4645 40.8 43.9356 33.6683 51.6366 32.9201L53.8907 32.7011V35.1371C53.8907 36.8366 53.7034 37.573 53.2711 37.573C52.9304 37.573 51.5995 37.8889 50.3137 38.275C45.557 39.7031 41.6875 44.7511 41.6776 49.5412C41.6758 50.767 41.4791 51.8911 41.2421 52.0392C41.0051 52.1873 39.8086 52.4474 38.5832 52.6172L36.3553 52.9259L36.6772 49.4066Z"
       fill="#718093"
       id="path4" />
  </g>
  <g
     clip-path="url(#clip1_3_38)"
     id="g18">
    <path
       d="M54.1675 0.0904981L53.7586 0.101515C51.9037 0.151498 50.4448 1.72282 50.5 3.61117L50.8436 15.3519C50.8989 17.2403 52.4474 18.7306 54.3023 18.6806L54.7111 18.6696C56.5661 18.6196 58.025 17.0483 57.9697 15.1599L57.6262 3.41915C57.5709 1.5308 56.0224 0.0405151 54.1675 0.0904981Z"
       fill="#718093"
       id="path8" />
    <path
       d="M13.3498 16.919L13.0731 17.2256C11.8177 18.6168 11.9111 20.777 13.2817 22.0505L21.8034 29.9684C23.174 31.2419 25.3028 31.1465 26.5582 29.7553L26.8349 29.4487C28.0903 28.0575 27.9969 25.8973 26.6263 24.6238L18.1046 16.7059C16.734 15.4324 14.6052 15.5278 13.3498 16.919Z"
       fill="#718093"
       id="path10" />
    <path
       d="M1.80975 48.4351L1.8087 48.8514C1.80389 50.7406 3.30425 52.2709 5.15983 52.2695L16.6969 52.2604C18.5525 52.2589 20.0606 50.7262 20.0654 48.837L20.0664 48.4207C20.0712 46.5315 18.5709 45.0012 16.7153 45.0026L5.17827 45.0117C3.32269 45.0132 1.81455 46.5459 1.80975 48.4351Z"
       fill="#718093"
       id="path12" />
    <path
       d="M106.477 48.837L106.475 48.4206C106.464 46.5315 104.952 45.0136 103.096 45.0304L91.5597 45.1349C89.7042 45.1517 88.2084 46.6968 88.2187 48.5859L88.221 49.0023C88.2313 50.8915 89.7439 52.4093 91.5994 52.3925L103.136 52.288C104.991 52.2712 106.487 50.7261 106.477 48.837Z"
       fill="#718093"
       id="path14" />
    <path
       d="M91.5235 15.4177L91.2459 15.1119C89.9864 13.7246 87.8641 13.6433 86.5057 14.9302L78.0597 22.9319C76.7012 24.2188 76.6211 26.3867 77.8806 27.774L78.1582 28.0798C79.4178 29.4671 81.54 29.5484 82.8985 28.2615L91.3445 20.2599C92.7029 18.9729 92.7831 16.805 91.5235 15.4177Z"
       fill="#718093"
       id="path16" />
  </g>
  <defs
     id="defs26">
    <clipPath
       id="clip0_3_38">
      <rect
         width="64"
         height="99"
         fill="white"
         transform="translate(22 20)"
         id="rect20" />
    </clipPath>
    <clipPath
       id="clip1_3_38">
      <rect
         width="108"
         height="54"
         fill="white"
         id="rect23" />
    </clipPath>
  </defs>
</svg>
