<?xml version="1.0" standalone="no"?>
<!DOCTYPE svg PUBLIC "-//W3C//DTD SVG 20010904//EN"
 "http://www.w3.org/TR/2001/REC-SVG-20010904/DTD/svg10.dtd">
<svg version="1.0" xmlns="http://www.w3.org/2000/svg"
 width="293.000000pt" height="293.000000pt" viewBox="0 0 293.000000 293.000000"
 preserveAspectRatio="xMidYMid meet">
<metadata>
Created by potrace 1.11, written by Peter Selinger 2001-2013
</metadata>
<g transform="translate(0.000000,293.000000) scale(0.100000,-0.100000)"
fill="#000000" stroke="none">
<path d="M1691 2915 c-69 -20 -98 -41 -172 -127 -87 -101 -134 -179 -265 -436
-80 -157 -117 -241 -121 -273 l-5 -46 94 -8 c51 -4 100 -9 108 -10 8 -1 56 -5
105 -9 50 -4 101 -9 115 -11 14 -2 61 -7 105 -11 190 -15 295 -25 325 -29 14
-2 58 -7 99 -10 65 -6 73 -5 68 9 -10 26 -17 150 -22 371 -2 116 -6 221 -9
235 -2 14 -7 43 -10 65 -17 125 -83 232 -170 277 -52 27 -172 33 -245 13z
m209 -100 c51 -26 90 -97 115 -208 18 -81 27 -556 10 -558 -15 -2 -141 8 -205
16 -18 3 -66 7 -104 10 -39 3 -93 8 -121 10 -94 10 -140 15 -200 20 -33 3 -80
8 -105 11 l-46 5 111 217 c119 234 128 249 192 332 92 120 126 147 194 156 24
3 45 8 47 9 8 7 88 -7 112 -20z"/>
<path d="M1828 2563 c-62 -73 -29 -261 41 -238 31 9 52 70 50 137 -4 95 -51
147 -91 101z"/>
<path d="M1021 1873 c-281 -904 -353 -1145 -356 -1190 l-4 -53 62 -1 c34 0
161 -2 282 -4 945 -16 1045 -16 1046 3 0 9 2 26 4 37 2 11 7 52 10 90 4 39 8
81 10 95 1 14 6 54 9 90 4 36 9 81 11 100 8 75 15 137 20 185 13 130 17 160
21 166 4 6 73 26 124 35 14 3 52 13 86 23 52 15 64 16 79 5 30 -22 84 -17 121
11 33 25 81 33 134 21 21 -5 39 6 40 25 0 10 -79 28 -101 24 -20 -4 -25 11
-11 33 5 7 36 18 70 24 51 9 62 15 62 31 0 18 -5 19 -47 14 -27 -3 -56 -9 -65
-12 -12 -5 -21 2 -32 24 -15 28 -15 31 2 40 10 5 31 12 47 14 20 2 29 9 30 24
1 18 -3 21 -35 18 -20 -1 -51 -12 -70 -24 -19 -11 -45 -21 -58 -21 -51 0 -106
-49 -122 -110 l-10 -36 -112 -27 c-62 -15 -116 -27 -121 -27 -4 0 -5 10 -2 23
2 12 7 49 10 82 11 119 18 181 25 228 6 39 4 47 -9 48 -9 0 -25 2 -36 4 -11 2
-47 7 -80 10 -33 4 -76 8 -95 11 -19 2 -60 6 -90 9 -30 3 -71 8 -90 10 -31 4
-123 13 -200 20 -37 3 -150 16 -190 20 -19 3 -78 9 -130 15 -52 6 -118 13
-147 16 l-52 6 -40 -129z m229 12 c36 -3 81 -8 100 -10 33 -4 67 -8 193 -20
28 -3 63 -7 77 -10 14 -2 57 -7 95 -10 39 -3 86 -8 105 -10 19 -2 62 -7 95
-10 33 -3 69 -8 80 -10 11 -2 34 -4 52 -4 31 -1 31 -1 28 -48 -2 -27 -6 -61
-9 -78 -3 -16 -8 -66 -12 -110 -3 -44 -10 -84 -14 -89 -5 -5 -68 -23 -141 -41
l-133 -32 -151 100 c-82 55 -154 103 -158 107 -7 6 -13 27 -16 52 -1 4 -12 19
-26 33 -67 66 -187 -14 -150 -101 18 -42 42 -58 92 -60 39 -2 67 -17 219 -118
l174 -116 123 30 c67 17 130 33 141 37 17 5 18 0 12 -75 -4 -44 -9 -91 -11
-103 -4 -24 -9 -77 -21 -204 -3 -38 -8 -78 -10 -88 -2 -10 -6 -53 -9 -95 -4
-42 -11 -81 -16 -86 -8 -9 -118 -9 -604 -1 -99 2 -272 4 -384 4 l-203 1 6 27
c6 26 21 73 126 411 21 70 80 258 129 417 49 160 92 298 96 307 5 13 15 17 34
14 14 -3 55 -7 91 -11z"/>
<path d="M425 569 c-166 -24 -274 -185 -235 -350 20 -87 77 -155 160 -193 45
-21 53 -21 1005 -21 918 0 962 1 995 19 146 77 203 210 155 356 -28 84 -116
166 -199 187 -29 7 -1831 9 -1881 2z m561 -203 c48 -84 -17 -186 -117 -186
-98 0 -162 106 -114 188 51 85 183 84 231 -2z m-461 35 c75 -43 83 -137 18
-198 -29 -28 -42 -33 -81 -33 -114 0 -176 106 -117 197 33 50 123 67 180 34z
m862 -1 c84 -51 79 -170 -8 -216 -64 -33 -136 -14 -176 45 -75 112 66 243 184
171z m460 -23 c61 -54 47 -154 -26 -195 -45 -25 -79 -28 -124 -8 -46 19 -68
48 -74 97 -10 74 32 127 112 139 44 7 78 -4 112 -33z m428 21 c22 -9 71 -49
75 -62 10 -28 8 -81 -4 -104 -49 -94 -187 -100 -239 -10 -59 103 54 223 168
176z"/>
</g>
</svg>
