<?xml version="1.0" encoding="UTF-8" standalone="no"?>
<!-- Created with Inkscape (http://www.inkscape.org/) -->

<svg
   version="1.1"
   id="svg53"
   width="223.64891"
   height="109.83533"
   viewBox="0 0 223.64891 109.83533"
   xmlns="http://www.w3.org/2000/svg"
   xmlns:svg="http://www.w3.org/2000/svg">
  <defs
     id="defs57" />
  <g
     id="g59"
     transform="translate(-251.1727,-448.5295)">
    <rect
       style="fill:#ffffff"
       id="rect301"
       width="26.715973"
       height="58.383266"
       x="250.38969"
       y="332.47849" />
    <rect
       style="fill:#000000;stroke-width:0.515142"
       id="rect327-3-6"
       width="14.762155"
       height="37.806396"
       x="340.48837"
       y="457.95001"
       ry="6.9576244"
       transform="matrix(0.99964994,-0.02645736,0.02977864,0.99955652,0,0)" />
    <rect
       style="fill:#000000;stroke-width:0.515142"
       id="rect327-3-6-5"
       width="14.762155"
       height="37.806396"
       x="-173.97339"
       y="533.5188"
       ry="6.9576244"
       transform="matrix(0.67655084,-0.73639593,0.73863976,0.67410036,0,0)" />
    <rect
       style="fill:#000000;stroke-width:0.515142"
       id="rect327-3-6-5-6"
       width="14.762155"
       height="37.806396"
       x="-556.24182"
       y="252.5636"
       ry="6.9576244"
       transform="matrix(0.00253202,-0.99999679,0.99999969,-7.9056968e-4,0,0)" />
    <rect
       style="fill:#000000;stroke-width:0.515142"
       id="rect327-3-6-5-2"
       width="14.762155"
       height="37.806396"
       x="547.53235"
       y="-471.74625"
       ry="6.9576244"
       transform="matrix(0.00557122,0.99998448,-0.99996045,0.00889373,0,0)" />
    <rect
       style="fill:#000000;stroke-width:0.515142"
       id="rect327-3-6-5-6-9"
       width="14.762155"
       height="37.806396"
       x="652.92908"
       y="-4.891551"
       ry="6.9576244"
       transform="matrix(0.67878579,0.73433634,-0.73207696,0.68122194,0,0)" />
  </g>
</svg>
