<?xml version="1.0" encoding="UTF-8" standalone="no"?>
<!-- Created with Inkscape (http://www.inkscape.org/) -->

<svg
   width="36.035183mm"
   height="55.133404mm"
   viewBox="0 0 36.035183 55.133404"
   version="1.1"
   id="svg1953"
   xmlns="http://www.w3.org/2000/svg"
   xmlns:svg="http://www.w3.org/2000/svg">
  <defs
     id="defs1950" />
  <g
     id="layer1"
     transform="translate(-82.520866,-105.18159)">
    <path
       style="fill:#000000;stroke-width:0.264583"
       d="m 96.64047,160.23767 c -2.4211,-0.13157 -3.07831,-0.26254 -3.90902,-0.77901 -1.74977,-1.08787 -1.86868,-1.56471 -2.05553,-8.24269 -0.1969,-7.03735 -0.1177,-6.75003 -4.23037,-15.34583 -1.4273,-2.98318 -2.85617,-6.2574 -3.17526,-7.27604 -0.8091,-2.58292 -0.98913,-6.5974 -0.41217,-9.19075 1.19584,-5.37508 5.33716,-10.45042 10.32896,-12.65853 1.70233,-0.75302 5.53657,-1.5667 7.36624,-1.56322 2.20739,0.004 6.51458,1.1076 8.35263,2.13975 5.40415,3.03466 8.89646,8.17557 9.53763,14.04001 0.46429,4.24655 -0.41076,7.33943 -4.47917,15.83169 -1.42915,2.98318 -2.80455,6.07881 -3.05644,6.87917 -0.35101,1.1153 -0.49486,2.84574 -0.61587,7.40833 -0.15224,5.74012 -0.18068,5.98509 -0.79496,6.84638 -1.01173,1.41855 -2.28059,1.80598 -6.37438,1.94639 -1.96453,0.0674 -4.88156,0.0513 -6.48229,-0.0357 z m 10.48525,-3.70659 c 0.45019,-0.55596 0.50223,-0.99428 0.43686,-3.67989 l -0.0742,-3.04876 -6.94532,-0.0208 -6.94532,-0.0208 1e-5,3.34104 c 10e-6,3.46452 0.075,3.71789 1.19063,4.02258 0.29105,0.0795 3.07102,0.12053 6.17773,0.0912 5.60389,-0.0529 5.65259,-0.0583 6.15962,-0.68449 z m -0.36238,-9.70771 c 0.71953,-0.1439 0.81248,-0.28114 0.96398,-1.42316 0.27972,-2.10866 1.28069,-4.64308 4.07741,-10.32382 3.57675,-7.26517 3.86081,-8.12906 3.87153,-11.77396 0.0116,-3.95458 -0.69756,-6.05984 -3.13251,-9.29903 -4.31327,-5.73792 -12.2287,-7.56002 -18.8137,-4.33084 -5.30592,2.60194 -8.95592,8.73004 -8.51215,14.29133 0.25773,3.22992 0.96612,5.24047 3.79962,10.78395 2.64025,5.16542 4.31565,9.33237 4.31565,10.73357 0,1.43236 0.30886,1.50123 6.73271,1.50123 3.24563,0 6.25949,-0.0717 6.69746,-0.15927 z M 90.78486,121.55819 c 0.44327,-4.79303 4.08686,-8.7647 8.4229,-9.18134 l 1.26916,-0.12196 v 1.35658 c 0,0.94647 -0.10546,1.35658 -0.34885,1.35658 -0.19187,0 -0.94121,0.17591 -1.6652,0.39092 -2.67825,0.79535 -4.85697,3.60659 -4.86253,6.2742 -0.001,0.68263 -0.11177,1.30864 -0.24522,1.39112 -0.13346,0.0825 -0.80714,0.22733 -1.49708,0.3219 l -1.25444,0.17194 z"
       id="path1987" />
  </g>
</svg>
