<?xml version="1.0" encoding="UTF-8" standalone="no"?>
<!-- Created with Inkscape (http://www.inkscape.org/) -->

<svg
   width="84.109459mm"
   height="22.491943mm"
   viewBox="0 0 84.109459 22.491943"
   version="1.1"
   id="svg1795"
   xmlns="http://www.w3.org/2000/svg"
   xmlns:svg="http://www.w3.org/2000/svg">
  <defs
     id="defs1792" />
  <g
     id="layer1"
     transform="translate(-71.834767,-130.83909)">
    <path
       style="fill:#000000;stroke-width:0.264583"
       d="m 82.125485,152.6656 c 0,-0.57523 1.290828,-11.6756 1.730267,-14.87928 l 0.154241,-1.12447 h 1.253786 c 1.455788,0 1.888789,0.3273 1.888789,1.42773 v 0.79274 l 0.859896,-0.81603 c 1.779686,-1.68891 3.591055,-2.09903 5.128937,-1.16127 1.237444,0.75455 1.781948,2.4158 1.633324,4.98315 -0.204235,3.52804 -1.971562,6.35949 -4.594757,7.36129 -1.216885,0.46474 -2.029389,0.405 -3.590195,-0.26393 -0.364818,-0.15636 -0.458115,0.0904 -0.611492,1.61726 -0.284001,2.82723 -0.20561,2.72781 -2.150835,2.72781 -1.641453,0 -1.701961,-0.0237 -1.701961,-0.665 z m 7.355618,-6.48643 c 0.957315,-0.89188 1.448676,-2.14237 1.583785,-4.0307 0.137009,-1.91489 -0.277381,-2.84079 -1.271413,-2.84079 -0.643051,0 -1.840129,1.26562 -2.416678,2.55505 -0.678952,1.51845 -0.958003,4.29685 -0.463031,4.61023 0.652751,0.41327 1.97022,0.26251 2.567337,-0.29379 z m 40.617117,6.15924 c 0.0829,-0.54571 0.53892,-4.29617 1.01331,-8.33438 l 0.86254,-7.34218 h 1.11552 c 1.65724,0 1.95256,0.1885 1.95256,1.24634 v 0.92514 l 0.97294,-0.85426 c 1.84677,-1.62148 3.54324,-1.97197 5.06225,-1.04586 1.3145,0.80143 1.71572,2.03443 1.59087,4.88898 -0.0935,2.1387 -0.20442,2.5753 -1.04288,4.1065 -1.61001,2.94022 -4.29221,4.35142 -6.3343,3.33269 -0.46328,-0.23112 -0.93447,-0.36326 -1.0471,-0.29365 -0.11263,0.0696 -0.28915,1.07973 -0.39227,2.24471 l -0.1875,2.11816 h -1.85836 -1.85836 z m 7.56659,-6.39134 c 0.87793,-0.93982 1.34609,-2.4145 1.34609,-4.24009 0,-1.67011 -0.34964,-2.3993 -1.15043,-2.3993 -1.33119,0 -2.8791,2.60095 -3.21003,5.3938 -0.20879,1.76213 -0.0393,2.00385 1.41003,2.01048 0.64021,0.003 1.08533,-0.20929 1.60434,-0.76489 z m 7.33271,5.59759 c 0.54199,-0.98227 1.14313,-2.02079 1.33587,-2.30783 0.5306,-0.79023 0.46473,-1.20732 -1.10478,-6.99489 -0.80037,-2.95134 -1.45521,-5.41945 -1.45521,-5.48468 0,-0.0652 0.8632,-0.0836 1.91823,-0.0409 l 1.91823,0.0777 0.69618,3.38612 c 0.38291,1.86236 0.76706,3.45698 0.85367,3.54359 0.0866,0.0866 0.24132,-0.0679 0.34379,-0.34341 0.71378,-1.91904 2.79207,-6.3258 3.06507,-6.49911 0.39796,-0.25265 3.37566,-0.29421 3.37566,-0.0471 0,0.23015 -7.93611,15.74282 -8.27017,16.16566 -0.16051,0.20316 -0.9171,0.33073 -1.96163,0.33073 h -1.70035 z m -71.142772,-2.28061 c -0.547082,-0.20391 -1.201926,-0.52928 -1.455209,-0.72306 -0.25328,-0.19378 -0.503859,-0.37975 -0.556839,-0.41328 -0.05298,-0.0335 0.165092,-0.48393 0.4846,-1.00091 0.636842,-1.03043 1.281184,-1.17685 2.389852,-0.54308 0.813683,0.46514 2.165757,0.50653 2.592916,0.0794 0.414491,-0.4145 0.406956,-1.39952 -0.01323,-1.72959 -0.181901,-0.14289 -0.900737,-0.473 -1.597411,-0.73359 -2.256158,-0.84389 -3.109878,-2.63856 -2.287569,-4.80887 0.972285,-2.56614 4.478917,-3.74691 7.122988,-2.39848 0.642027,0.32743 1.208593,0.73105 1.259036,0.89694 0.05044,0.16589 -0.1998,0.64052 -0.556094,1.05474 -0.610653,0.70993 -0.69969,0.73436 -1.552485,0.42598 -1.392295,-0.50346 -2.782302,-0.42162 -3.105811,0.18287 -0.433639,0.81026 -0.08666,1.23874 1.690579,2.08768 2.781305,1.32855 3.420216,2.82718 2.2425,5.26002 -1.02113,2.10938 -4.257133,3.25802 -6.657824,2.36325 z m 24.278029,0.10996 c -1.441641,-0.5963 -2.248959,-2.21792 -2.248959,-4.51738 0,-5.22374 4.472152,-9.01942 9.837102,-8.34912 2.35289,0.29398 2.25837,-0.15813 1.41043,6.74661 l -0.75006,6.10773 h -1.22707 c -1.36253,0 -1.86207,-0.33361 -1.86207,-1.24355 0,-0.79203 -0.28923,-0.76869 -1.07836,0.087 -1.11373,1.20771 -2.811347,1.69386 -4.081013,1.16869 z m 3.919353,-3.70588 c 0.86902,-1.03276 1.44252,-2.64772 1.71846,-4.8391 0.2244,-1.782 0.22346,-1.78593 -0.42627,-1.78593 -2.41513,0 -4.58628,4.23898 -3.449281,6.73442 0.418591,0.91872 1.330931,0.87245 2.157091,-0.10939 z m 6.86977,2.56924 c 0.08,-0.61847 0.42262,-3.47597 0.7614,-6.35 l 0.61596,-5.22552 h 1.10502 c 1.61688,0 1.92545,0.19993 2.11235,1.36872 l 0.16732,1.04638 0.46388,-0.70715 c 0.25514,-0.38893 0.80425,-0.93154 1.22025,-1.2058 0.75914,-0.5005 2.07758,-0.67471 2.29852,-0.30372 0.065,0.10914 -0.007,0.88305 -0.16092,1.71979 -0.27877,1.51962 -0.28018,1.52136 -1.23431,1.52136 -0.52538,0 -1.20301,0.17356 -1.50587,0.38568 -0.92103,0.64512 -1.61051,2.72333 -1.95682,5.89817 l -0.32467,2.97657 h -1.85377 -1.85376 z m 8.8175,-0.21718 c 0.0979,-0.73791 0.60801,-4.87534 1.1336,-9.19427 l 0.95561,-7.85262 1.78594,-0.0782 c 2.13248,-0.0934 2.00533,-0.68477 1.22618,5.70278 -0.30787,2.5239 -0.4954,4.65329 -0.41673,4.73196 0.29412,0.29412 0.96479,-0.36352 2.53441,-2.48515 l 1.61488,-2.18281 h 2.00083 2.00084 l -2.01511,2.6289 c -1.10831,1.4459 -2.15702,2.6767 -2.33046,2.7351 -0.24334,0.0819 -0.24261,0.19439 0.003,0.49237 0.25639,0.31084 1.23265,2.49774 2.90741,6.5129 0.10278,0.24639 -0.33885,0.33073 -1.732,0.33073 -1.15935,0 -1.98414,-0.12569 -2.17041,-0.33073 -0.16524,-0.1819 -0.73683,-1.4023 -1.27019,-2.71198 -0.76272,-1.87288 -1.08185,-2.38125 -1.49481,-2.38125 -0.44437,0 -0.5541,0.24398 -0.71396,1.5875 -0.10389,0.87312 -0.26052,2.09351 -0.34806,2.71198 l -0.15916,1.12448 h -1.84498 -1.84499 l 0.17798,-1.34166 z"
       id="path1829" />
  </g>
</svg>
