<?xml version="1.0" encoding="UTF-8" standalone="no"?>
<!-- Created with Inkscape (http://www.inkscape.org/) -->

<svg
   version="1.1"
   id="svg53"
   width="516.7641"
   height="254.84019"
   viewBox="0 0 516.7641 254.8402"
   xmlns="http://www.w3.org/2000/svg"
   xmlns:svg="http://www.w3.org/2000/svg">
  <defs
     id="defs57" />
  <g
     id="g59"
     transform="translate(-251.1727,-448.5295)">
    <path
       style="fill:#000000"
       d="m 348.93682,703.05194 c -12.81626,-0.78364 -17.14108,-2.77588 -20.82828,-9.59459 -1.30021,-2.40447 -1.74367,-7.48298 -2.22689,-25.50236 -0.71279,-26.58024 -0.56364,-26.0347 -15.44606,-56.5 -12.84571,-26.29603 -14.49877,-31.92491 -14.49877,-49.37012 0,-15.47512 1.09061,-20.60692 6.63394,-31.2157 22.508,-43.07559 83.1459,-49.95926 114.02755,-12.94452 11.54332,13.83583 16.88081,29.61719 16.07546,47.53034 -0.57804,12.85704 -3.00554,20.09076 -15.34657,45.73139 -14.69755,30.5367 -14.5734,30.07649 -15.31416,56.76861 -0.49922,17.98842 -0.94996,23.10202 -2.24794,25.50236 -4.02641,7.446 -8.57677,9.13095 -26.32828,9.7491 -7.7,0.26813 -18.725,0.1986 -24.5,-0.15451 z m 39.25,-15.25261 c 1.43828,-1.69791 1.75001,-4.0501 1.75008,-13.20512 l 8e-5,-11.13922 h -25.49996 -25.49995 l -1.2e-4,12.12756 c -9e-5,8.61099 0.36969,12.43447 1.27526,13.18603 1.93074,1.60237 9.4454,2.00196 28.72461,1.52741 16.16628,-0.39792 17.63337,-0.58819 19.25,-2.49666 z m -4.39669,-36.4868 c 6.01055,-0.62822 6.14669,-0.70847 6.14669,-3.62335 0,-5.59741 6.79564,-23.21448 15.83378,-41.04764 14.48442,-28.57921 17.29345,-40.02746 13.7402,-55.99862 -2.55382,-11.47896 -6.76859,-19.03204 -15.49843,-27.77401 -17.96323,-17.98821 -42.69266,-22.00706 -66.07555,-10.73813 -13.57961,6.54442 -26.79625,23.61533 -29.90303,38.62343 -3.29655,15.92487 -0.57545,26.87678 13.83935,55.70078 11.17232,22.34029 14.70791,31.25208 15.7505,39.70066 l 0.58007,4.70066 4.61656,0.36909 c 8.51212,0.68054 34.75836,0.73636 40.96986,0.0871 z m -57.58326,-94.7452 c 0.97575,-12.90165 7.35448,-23.99131 17.50758,-30.43757 5.11349,-3.24658 13.86461,-6.17477 18.45378,-6.17477 2.85895,0 2.86741,0.0189 2.56849,5.72853 l -0.2999,5.72854 -6.20472,1.61824 c -11.70593,3.053 -18.17681,10.42293 -19.22884,21.90046 -0.34916,3.80928 -0.86751,7.15863 -1.15188,7.443 -0.28437,0.28437 -3.15174,0.8267 -6.37194,1.20517 l -5.8549,0.68813 z m 161.0083,86.13766 c 0.3026,-2.3375 2.03523,-16.7375 3.85028,-32 l 3.30009,-27.75 h 5.87251 c 5.56215,0 5.93037,0.15331 6.96749,2.90098 l 1.095,2.90097 3.84388,-3.08903 c 5.22682,-4.20038 13.87709,-5.02522 18.06238,-1.72231 4.72344,3.72759 6.16125,7.63066 6.08175,16.50939 -0.098,10.94263 -2.96222,18.24092 -9.86947,25.14817 -3.61655,3.61656 -6.3204,5.41844 -8.84001,5.89112 -3.77222,0.70767 -8.94544,0.28843 -11.79273,-0.95571 -1.73167,-0.75665 -1.78695,-0.56898 -3.4363,11.66642 l -0.64031,4.75 h -7.52238 -7.52238 z m 27.11963,-23.34922 c 4.09879,-1.57286 8.23998,-13.66525 7.06386,-20.62667 -1.34443,-7.95762 -7.3722,-6.83133 -11.96698,2.23602 -2.93907,5.79998 -4.8716,17.08316 -3.12141,18.22456 1.36963,0.89321 5.88606,0.98669 8.02453,0.16609 z m 153.90556,23.39376 c 0.31836,-2.362 2.06582,-16.78204 3.88326,-32.04454 l 3.30443,-27.75 h 5.1726 c 6.80943,0 8.33617,0.69253 8.33617,3.7813 v 2.56733 l 2.25,-2.05734 c 6.44347,-5.89174 16.3759,-7.15984 21.60652,-2.75856 8.05858,6.78084 7.17317,26.27821 -1.72816,38.05556 -5.22254,6.90994 -10.1836,9.55381 -17.12836,9.12811 -3.025,-0.18543 -6.22312,-0.67092 -7.10693,-1.07886 -1.37293,-0.63371 -1.73698,0.46723 -2.5,7.56037 l -0.89307,8.30209 -7.88764,0.29454 -7.88765,0.29454 z m 27.75185,-23.82418 c 6.04029,-3.23267 9.09178,-22.21568 4.00845,-24.93619 -2.45873,-1.31588 -6.41692,1.77745 -9.16356,7.1613 -2.16375,4.24131 -4.34676,15.19865 -3.47867,17.46083 0.60942,1.58815 5.89395,1.78037 8.63378,0.31406 z m 25.72683,26.27964 c 0.39478,-0.9625 2.83165,-5.57729 5.41526,-10.25509 l 4.69748,-8.50508 -5.83036,-21.49492 -5.83037,-21.49491 7.0393,-0.29697 c 3.87162,-0.16333 7.58514,-0.0875 8.25227,0.1685 0.66714,0.256 2.25561,5.87687 3.52993,12.49082 1.27433,6.61394 2.60095,11.84984 2.94804,11.63532 0.3471,-0.21452 2.5851,-5.02675 4.97333,-10.69385 5.80437,-13.77337 5.83565,-13.80382 14.17789,-13.80382 3.76475,0 6.84501,0.2992 6.84501,0.66489 0,1.24237 -30.22114,59.82524 -31.7699,61.58511 -1.18341,1.34472 -3.11786,1.75 -8.35286,1.75 -6.09514,0 -6.73718,-0.18434 -6.09502,-1.75 z M 454.43682,630.52135 c -1.65,-0.74545 -3.84282,-1.99975 -4.87294,-2.78734 -1.81634,-1.3887 -1.80123,-1.5436 0.5,-5.12564 2.82708,-4.40057 5.94695,-5.49013 9.34504,-3.26362 4.91814,3.22249 12.72986,1.18488 11.1583,-2.91054 -0.32634,-0.85043 -3.52004,-2.85936 -7.09711,-4.46428 -9.74819,-4.37372 -12.55788,-10.23365 -8.99515,-18.76046 3.22743,-7.72433 9.10701,-11.26305 18.67202,-11.23803 6.32546,0.0165 13.5971,2.84835 14.51896,5.65413 0.21153,0.64383 -0.91331,2.62321 -2.49965,4.39863 l -2.88426,3.22804 -4.62923,-1.76792 c -5.06236,-1.93333 -9.13117,-1.49571 -10.12293,1.08879 -0.89037,2.32025 1.06232,4.25469 6.9016,6.8371 2.79109,1.23435 6.345,3.75394 7.8976,5.59909 2.44823,2.90956 2.76205,3.98803 2.36448,8.12568 -0.99752,10.38131 -9.09756,16.85525 -20.99583,16.78087 -3.4435,-0.0215 -7.6109,-0.64905 -9.2609,-1.3945 z m 91.11488,-0.65466 c -4.50715,-3.54532 -6.02439,-7.61428 -5.99586,-16.07986 0.0223,-6.60584 0.47766,-8.58593 3.28725,-14.29301 3.81701,-7.75345 10.24157,-13.43076 18.18366,-16.0687 5.63897,-1.87296 22.02757,-1.75263 23.9561,0.1759 0.70571,0.70571 0.22107,7.60349 -1.54162,21.94162 -3.45231,28.0819 -2.52541,25.41235 -8.82346,25.41235 -5.62168,0 -7.68095,-1.17618 -7.68095,-4.38709 0,-1.84271 -0.19981,-1.80073 -2.75,0.57781 -4.01047,3.74054 -6.57703,4.80928 -11.5494,4.80928 -2.97913,0 -5.30072,-0.68422 -7.08572,-2.0883 z m 17.13084,-13.1617 c 2.93401,-3.15207 5.06534,-9.07254 6.19622,-17.21205 0.532,-3.82913 0.8454,-7.08394 0.69644,-7.2329 -0.66692,-0.66693 -7.10532,1.80755 -8.87855,3.4123 -6.72379,6.08494 -8.48704,23.28265 -2.38714,23.28265 1.25328,0 3.22114,-1.0125 4.37303,-2.25 z m 25.33597,12 c 0.0449,-1.2375 1.28243,-11.925 2.75,-23.75 l 2.66831,-21.5 5.33118,-0.30507 c 5.98228,-0.34234 8.16882,0.85169 8.16882,4.46085 0,2.34829 0.0893,2.32154 3.4409,-1.03001 3.81412,-3.81412 8.4105,-5.31085 11.3985,-3.71172 1.71613,0.91844 1.8453,1.57213 1.05057,5.31657 -2.01742,9.5052 -1.69581,8.97093 -4.96757,8.25234 -6.84915,-1.50433 -11.14233,5.31614 -12.93132,20.54364 -1.79964,15.31812 -0.88444,13.9734 -9.51013,13.9734 -7.11556,0 -7.47696,-0.1099 -7.39926,-2.25 z m 33.18247,-0.5 c 0.28279,-1.5125 2.23318,-17.2625 4.3342,-35 l 3.82004,-32.25 h 7.7908 c 5.56591,0 7.79084,0.35697 7.79093,1.25 6e-5,0.6875 -0.92922,8.80679 -2.06507,18.04287 -1.13586,9.23608 -1.91455,17.56108 -1.73042,18.5 0.32587,1.6617 1.02447,0.89147 11.37633,-12.54287 2.47924,-3.21748 2.58974,-3.25 11.04466,-3.25 h 8.54038 l -6.71576,8.75 c -3.69366,4.8125 -7.58935,9.52413 -8.65709,10.47029 -1.80952,1.60347 -1.8348,1.90902 -0.37231,4.5 1.3727,2.43188 7.0929,15.49441 9.66401,22.0685 l 0.89513,2.28878 -8.65672,-0.28878 -8.65673,-0.28879 -4.08327,-9.92374 c -2.2458,-5.45806 -4.57851,-10.08564 -5.1838,-10.28351 -0.70438,-0.23027 -1.5499,3.43192 -2.34889,10.17374 l -1.24836,10.53351 h -8.02611 -8.02611 z"
       id="path179" />
    <rect
       style="fill:#ffffff"
       id="rect301"
       width="26.715973"
       height="58.383266"
       x="250.38969"
       y="332.47849" />
    <rect
       style="fill:#000000;stroke-width:0.515142"
       id="rect327-3-6"
       width="14.762155"
       height="37.806396"
       x="340.48837"
       y="457.95001"
       ry="6.9576244"
       transform="matrix(0.99964994,-0.02645736,0.02977864,0.99955652,0,0)" />
    <rect
       style="fill:#000000;stroke-width:0.515142"
       id="rect327-3-6-5"
       width="14.762155"
       height="37.806396"
       x="-173.97339"
       y="533.5188"
       ry="6.9576244"
       transform="matrix(0.67655084,-0.73639593,0.73863976,0.67410036,0,0)" />
    <rect
       style="fill:#000000;stroke-width:0.515142"
       id="rect327-3-6-5-6"
       width="14.762155"
       height="37.806396"
       x="-556.24182"
       y="252.5636"
       ry="6.9576244"
       transform="matrix(0.00253202,-0.99999679,0.99999969,-7.9056968e-4,0,0)" />
    <rect
       style="fill:#000000;stroke-width:0.515142"
       id="rect327-3-6-5-2"
       width="14.762155"
       height="37.806396"
       x="547.53235"
       y="-471.74625"
       ry="6.9576244"
       transform="matrix(0.00557122,0.99998448,-0.99996045,0.00889373,0,0)" />
    <rect
       style="fill:#000000;stroke-width:0.515142"
       id="rect327-3-6-5-6-9"
       width="14.762155"
       height="37.806396"
       x="652.92908"
       y="-4.891551"
       ry="6.9576244"
       transform="matrix(0.67878579,0.73433634,-0.73207696,0.68122194,0,0)" />
  </g>
</svg>
